<?xml version="1.0" standalone="no"?>
<!DOCTYPE svg PUBLIC "-//W3C//DTD SVG 20010904//EN"
 "http://www.w3.org/TR/2001/REC-SVG-20010904/DTD/svg10.dtd">
<svg version="1.0" xmlns="http://www.w3.org/2000/svg"
 width="97.000000pt" height="97.000000pt" viewBox="0 0 97.000000 97.000000"
 preserveAspectRatio="xMidYMid meet">
<metadata>
Created by potrace 1.11, written by Peter Selinger 2001-2013
</metadata>
<g transform="translate(0.000000,97.000000) scale(0.100000,-0.100000)"
fill="#000000" stroke="none">
<path d="M27 956 c-2 -6 -3 -222 -3 -481 l1 -470 453 0 c274 0 456 3 460 9 3
5 5 221 5 480 l0 471 -456 1 c-313 0 -457 -3 -460 -10z m838 -471 l0 -410
-382 0 c-333 0 -383 2 -384 15 -6 66 -3 787 2 795 5 6 145 10 386 10 l378 0 0
-410z"/>
<path d="M272 782 c-45 -64 -92 -249 -93 -371 -1 -68 4 -81 32 -81 46 0 59 17
59 78 l1 57 23 -45 c44 -83 83 -102 146 -70 l38 20 -5 -70 c-3 -38 -3 -80 1
-93 7 -31 48 -46 94 -36 55 11 63 31 58 137 -5 86 -4 93 12 87 69 -27 125 -9
137 44 10 47 -3 57 -35 26 -34 -33 -57 -28 -73 15 -9 23 -17 30 -39 30 -31 0
-34 10 -17 58 9 25 18 32 60 42 71 17 119 65 119 116 -1 55 -20 76 -70 76 -50
-1 -83 -25 -131 -97 -27 -39 -40 -51 -50 -44 -37 23 -55 -7 -19 -32 20 -14 20
-14 -1 -81 -22 -72 -73 -138 -107 -138 -20 0 -52 29 -52 47 0 5 18 18 40 28
46 21 48 23 60 66 8 27 5 35 -20 60 -36 36 -75 38 -123 5 l-36 -25 10 26 c5
14 18 36 29 50 39 49 35 109 -10 133 -15 8 -22 5 -38 -18z m448 -61 c0 -21
-63 -77 -68 -60 -5 12 45 79 59 79 5 0 9 -9 9 -19z m-350 -176 c0 -17 -22 -34
-60 -45 l-32 -9 17 27 c10 15 24 32 32 39 17 14 43 7 43 -12z m206 -252 c4
-41 2 -63 -6 -68 -20 -12 -23 2 -15 70 4 37 9 65 11 62 3 -2 7 -31 10 -64z"/>
</g>
</svg>
